HIERARCHY
ROOT Hips
{
	OFFSET 0.00000 0.00000 0.00000
	CHANNELS 6 Xposition Yposition Zposition Zrotation Yrotation Xrotation 
	JOINT LHipJoint
	{
		OFFSET 0 0 0
		CHANNELS 3 Zrotation Yrotation Xrotation
		JOINT LeftUpLeg
		{
			OFFSET 1.38691 -1.89057 0.78360
			CHANNELS 3 Zrotation Yrotation Xrotation
			JOINT LeftLeg
			{
				OFFSET 2.59731 -7.13606 0.00000
				CHANNELS 3 Zrotation Yrotation Xrotation
				JOINT LeftFoot
				{
					OFFSET 2.70078 -7.42033 0.00000
					CHANNELS 3 Zrotation Yrotation Xrotation
					JOINT LeftToeBase
					{
						OFFSET 0.16751 -0.46024 2.68862
						CHANNELS 3 Zrotation Yrotation Xrotation
						End Site
						{
							OFFSET 0.00000 -0.00000 1.37057
						}
					}
				}
			}
		}
	}
	JOINT RHipJoint
	{
		OFFSET 0 0 0
		CHANNELS 3 Zrotation Yrotation Xrotation
		JOINT RightUpLeg
		{
			OFFSET -1.38190 -1.89056 0.78359
			CHANNELS 3 Zrotation Yrotation Xrotation
			JOINT RightLeg
			{
				OFFSET -2.57785 -7.08258 0.00000
				CHANNELS 3 Zrotation Yrotation Xrotation
				JOINT RightFoot
				{
					OFFSET -2.77908 -7.63547 0.00000
					CHANNELS 3 Zrotation Yrotation Xrotation
					JOINT RightToeBase
					{
						OFFSET -0.17921 -0.49237 2.62360
						CHANNELS 3 Zrotation Yrotation Xrotation
						End Site
						{
							OFFSET -0.00000 -0.00000 1.34085
						}
					}
				}
			}
		}
	}
	JOINT LowerBack
	{
		OFFSET 0 0 0
		CHANNELS 3 Zrotation Yrotation Xrotation
		JOINT Spine
		{
			OFFSET -0.10749 2.04110 -0.22549
			CHANNELS 3 Zrotation Yrotation Xrotation
			JOINT Spine1
			{
				OFFSET 0.01213 2.05840 0.00691
				CHANNELS 3 Zrotation Yrotation Xrotation
				JOINT Neck
				{
					OFFSET 0 0 0
					CHANNELS 3 Zrotation Yrotation Xrotation
					JOINT Neck1
					{
						OFFSET 0.06585 1.81215 0.35449
						CHANNELS 3 Zrotation Yrotation Xrotation
						JOINT Head
						{
							OFFSET -0.04315 1.87555 -0.27307
							CHANNELS 3 Zrotation Yrotation Xrotation
							End Site
							{
								OFFSET -0.01775 1.89740 -0.13294
							}
						}
					}
				}
				JOINT LeftShoulder
				{
					OFFSET 0 0 0
					CHANNELS 3 Zrotation Yrotation Xrotation
					JOINT LeftArm
					{
						OFFSET 2.98012 1.63606 0.28888
						CHANNELS 3 Zrotation Yrotation Xrotation
						JOINT LeftForeArm
						{
							OFFSET 5.59864 -0.00000 -0.00000
							CHANNELS 3 Zrotation Yrotation Xrotation
							JOINT LeftHand
							{
								OFFSET 3.59542 -0.00000 -0.00000
								CHANNELS 3 Zrotation Yrotation Xrotation
								JOINT LeftFingerBase
								{
									OFFSET 0 0 0
									CHANNELS 3 Zrotation Yrotation Xrotation
									JOINT LeftHandIndex1
									{
										OFFSET 0.57201 -0.00000 -0.00000
										CHANNELS 3 Zrotation Yrotation Xrotation
										End Site
										{
											OFFSET 0.46117 -0.00000 -0.00000
										}
									}
								}
								JOINT LThumb
								{
									OFFSET 0 0 0
									CHANNELS 3 Zrotation Yrotation Xrotation
									End Site
									{
										OFFSET 0.46821 -0.00000 0.46821
									}
								}
							}
						}
					}
				}
				JOINT RightShoulder
				{
					OFFSET 0 0 0
					CHANNELS 3 Zrotation Yrotation Xrotation
					JOINT RightArm
					{
						OFFSET -3.08694 1.53706 0.36335
						CHANNELS 3 Zrotation Yrotation Xrotation
						JOINT RightForeArm
						{
							OFFSET -5.80940 -0.00000 -0.00000
							CHANNELS 3 Zrotation Yrotation Xrotation
							JOINT RightHand
							{
								OFFSET -3.66953 -0.00000 -0.00000
								CHANNELS 3 Zrotation Yrotation Xrotation
								JOINT RightFingerBase
								{
									OFFSET 0 0 0
									CHANNELS 3 Zrotation Yrotation Xrotation
									JOINT RightHandIndex1
									{
										OFFSET -0.57843 -0.00000 -0.00000
										CHANNELS 3 Zrotation Yrotation Xrotation
										End Site
										{
											OFFSET -0.46635 -0.00000 -0.00000
										}
									}
								}
								JOINT RThumb
								{
									OFFSET 0 0 0
									CHANNELS 3 Zrotation Yrotation Xrotation
									End Site
									{
										OFFSET -0.47347 -0.00000 0.47347
									}
								}
							}
						}
					}
				}
			}
		}
	}
}
MOTION
Frames: 5
Frame Time: .0083333
-12.6076 18.4734 20.8439 -16.3433 76.0124 -11.5575 0.0000 0.0000 0.0000 -7.8692 -4.1841 -16.2934 9.0249 16.8237 56.1760 6.5720 -18.0814 -47.3100 1.0777 -6.5986 -18.5315 0.0000 0.0000 0.0000 17.9934 -1.7908 -23.8462 -8.1105 -16.1999 52.9598 -0.4122 32.2428 -24.9193 -0.1043 2.0824 -5.7335 -4.1755 1.6044 10.0407 -2.1366 1.4902 -1.4732 -0.1468 0.8624 -7.2554 -2.7758 -6.2852 -18.0752 1.7748 -8.1780 39.7318 -0.2232 -3.0601 18.0618 -0.0000 0.0000 0.0000 -73.2752 14.4003 44.6545 42.7206 -49.6017 -20.4877 -0.0000 0.0000 -32.0367 29.0627 12.8309 7.0356 -7.1250 0.0000 -0.0000 1.6353 44.5784 -0.0170 -0.0000 0.0000 0.0000 89.8697 3.5228 30.3678 -13.9269 22.6301 -2.7999 0.0000 -0.0000 -0.9967 -27.6902 -1.7740 0.9307 7.1250 -0.0000 -0.0000 -0.8943 -31.9822 -0.2849
-12.5723 18.4683 21.2172 -16.6623 76.0136 -11.7755 0.0000 0.0000 0.0000 -7.6124 -4.5644 -16.2654 9.0876 16.8638 56.3927 6.4896 -18.3538 -47.0080 1.0955 -6.6511 -18.6858 0.0000 0.0000 0.0000 18.1783 -2.0231 -23.8520 -8.1013 -16.1932 52.9266 -0.4072 32.3771 -24.9849 -0.1017 2.0569 -5.6630 -4.2587 1.8062 10.1830 -2.2402 1.7326 -1.5169 -0.2559 0.9841 -7.3912 -2.7133 -6.3332 -18.1195 1.9280 -8.3368 39.6635 -0.1968 -3.0914 18.0472 -0.0000 0.0000 0.0000 -72.8348 15.1656 43.2783 43.3111 -49.9138 -20.9385 -0.0000 0.0000 -32.3417 28.9039 13.0424 7.1023 -7.1250 0.0000 -0.0000 1.4686 44.7960 -0.0074 -0.0000 0.0000 0.0000 90.0026 4.3691 30.2420 -13.7421 22.3648 -2.7292 0.0000 -0.0000 -0.5413 -27.2576 -2.0653 1.0637 7.1250 -0.0000 -0.0000 -0.5440 -32.3024 -0.1691
-12.5374 18.4648 21.5885 -17.0989 75.9416 -11.9919 0.0000 0.0000 0.0000 -7.2707 -4.8073 -16.4369 9.1606 16.9100 56.6440 6.3793 -18.6074 -46.5983 1.0912 -6.6384 -18.6485 0.0000 0.0000 0.0000 18.4328 -1.9513 -23.8863 -8.0839 -16.1806 52.8642 -0.4409 32.4821 -25.2163 -0.1138 2.1745 -5.9883 -4.2864 2.0960 10.2330 -2.3450 2.1025 -1.6046 -0.4185 1.1657 -7.5224 -2.7274 -6.4792 -18.1297 2.1102 -8.6288 39.5821 -0.1705 -3.1838 18.0292 -0.0000 -0.0000 0.0000 -72.0979 15.9647 42.4682 44.2972 -50.4195 -21.6957 -0.0000 0.0000 -33.0372 28.9103 13.2684 7.2238 -7.1250 0.0000 -0.0000 1.4539 45.0512 0.0018 -0.0000 -0.0000 0.0000 90.0340 5.0923 30.0938 -13.7048 22.3112 -2.7150 0.0000 -0.0000 -0.4859 -26.8141 -2.3281 1.1763 7.1250 -0.0000 -0.0000 -0.1825 -32.5880 -0.0555
-12.4998 18.4599 21.9572 -17.6472 75.9269 -12.3420 0.0000 0.0000 0.0000 -6.9472 -5.1420 -16.5596 9.2356 16.9569 56.9012 6.2582 -18.9564 -46.1528 1.0700 -6.5758 -18.4645 0.0000 0.0000 0.0000 18.7045 -2.0581 -23.9029 -8.0496 -16.1556 52.7411 -0.4475 32.6122 -25.3341 -0.1088 2.1270 -5.8568 -4.3102 2.3071 10.2906 -2.4186 2.3696 -1.6811 -0.5340 1.2970 -7.6433 -2.7422 -6.5654 -18.1325 2.3020 -8.8316 39.5071 -0.1211 -3.2395 18.0114 -0.0000 0.0000 0.0000 -71.6041 16.7482 41.3837 45.2917 -50.9106 -22.4649 -0.0000 0.0000 -33.5933 28.9219 13.4801 7.3392 -7.1250 0.0000 -0.0000 1.4449 45.2908 0.0104 -0.0000 0.0000 0.0000 89.8025 5.6300 30.8160 -13.8911 22.5788 -2.7862 0.0000 -0.0000 -1.1331 -26.5292 -2.8097 1.4018 7.1250 -0.0000 -0.0000 0.0573 -33.1194 0.0167
-12.4587 18.4620 22.3230 -18.4910 75.9549 -12.9549 0.0000 0.0000 0.0000 -6.5504 -5.4700 -16.7284 9.3100 17.0031 57.1562 6.1186 -19.1979 -45.6279 1.0861 -6.6236 -18.6048 0.0000 0.0000 0.0000 18.9878 -2.1217 -23.8770 -7.9930 -16.1141 52.5376 -0.4634 32.7254 -25.4844 -0.1183 2.2170 -6.1058 -4.2076 2.5628 10.3283 -2.5205 2.7114 -1.7739 -0.7636 1.4584 -7.7639 -2.7638 -6.7263 -18.0990 2.5156 -9.1534 39.4563 -0.0839 -3.3387 18.0063 -0.0000 0.0000 0.0000 -70.9099 17.5216 40.6663 46.5230 -51.4931 -23.4246 -0.0000 0.0000 -34.4045 29.2296 13.6709 7.5336 -7.1250 0.0000 -0.0000 1.7166 45.5473 0.0232 -0.0000 0.0000 0.0000 89.7969 6.1983 30.9756 -14.0323 22.7808 -2.8406 0.0000 -0.0000 -1.3193 -26.4877 -3.2407 1.6136 7.1250 -0.0000 -0.0000 0.1009 -33.5995 0.0282
